<?xml version="1.0" encoding="iso-8859-1"?>
<!-- Generator: Adobe Illustrator 19.0.0, SVG Export Plug-In . SVG Version: 6.00 Build 0)  -->
<svg version="1.1" id="Layer_1" xmlns="http://www.w3.org/2000/svg" xmlns:xlink="http://www.w3.org/1999/xlink" x="0px" y="0px"
	 viewBox="0 0 511.998 511.998" style="enable-background:new 0 0 511.998 511.998;" xml:space="preserve">
<g>
	<g>
		<path d="M452.363,0H59.636c-9.038,0-16.364,7.326-16.364,16.364v346.817v132.454c0,9.038,7.326,16.364,16.364,16.364h392.727
			c9.038,0,16.364-7.326,16.364-16.364V363.181V16.364C468.726,7.326,461.4,0,452.363,0z M435.999,411.455H180.977
			c-9.038,0-16.364,7.326-16.364,16.364c0,9.038,7.326,16.364,16.364,16.364h255.022v35.09h-360v-99.727h360V411.455z
			 M223.272,346.814v-53.548h26.067v53.548H223.272z M282.066,346.814v-69.912v-8.627h26.066v8.627v69.912H282.066z
			 M340.859,346.814v-53.548h26.067v53.548H340.859z M435.999,346.817h-36.345v-69.915c0-9.038-7.326-16.364-16.364-16.364h-42.431
			v-8.627c0-9.038-7.326-16.364-16.364-16.364h-58.793c-9.038,0-16.364,7.326-16.364,16.364v8.627h-42.431
			c-9.038,0-16.364,7.326-16.364,16.364v69.915H75.999V197.908h255.022c9.038,0,16.364-7.326,16.364-16.364
			c0-9.038-7.326-16.364-16.364-16.364h-78.469V70.09c0-9.038-7.326-16.364-16.364-16.364h-58.795H118.6
			c-9.038,0-16.364,7.326-16.364,16.364v8.625H75.999V32.727h360V346.817z M76.173,164.991v-53.548h26.067v53.548h-0.002H76.173z
			 M134.966,164.991V95.079v-8.625h26.067v78.537H134.966z M193.76,164.991V86.454h26.067v78.537H193.76z"/>
	</g>
</g>
<g>
	<g>
		<path d="M396.154,178.354c-0.213-1.047-0.524-2.078-0.933-3.06c-0.409-0.998-0.916-1.947-1.505-2.831
			c-0.589-0.9-1.276-1.735-2.029-2.487c-0.753-0.753-1.587-1.44-2.487-2.029c-0.884-0.589-1.849-1.096-2.831-1.505
			c-0.982-0.409-2.013-0.736-3.06-0.933c-2.111-0.425-4.287-0.425-6.398,0c-1.031,0.196-2.062,0.524-3.06,0.933
			c-0.982,0.409-1.931,0.916-2.815,1.505c-0.9,0.589-1.735,1.276-2.487,2.029c-0.753,0.753-1.44,1.587-2.045,2.487
			c-0.589,0.884-1.096,1.833-1.505,2.831c-0.409,0.982-0.72,2.013-0.933,3.06c-0.213,1.047-0.311,2.127-0.311,3.191
			c0,1.064,0.098,2.144,0.311,3.191c0.213,1.047,0.524,2.078,0.933,3.06c0.409,0.998,0.916,1.947,1.505,2.831
			c0.605,0.9,1.293,1.735,2.045,2.487c0.753,0.753,1.587,1.44,2.487,2.029c0.884,0.589,1.833,1.096,2.815,1.505
			c0.998,0.409,2.029,0.736,3.06,0.933c1.064,0.213,2.144,0.327,3.207,0.327s2.144-0.115,3.191-0.327
			c1.047-0.196,2.078-0.524,3.06-0.933c0.982-0.409,1.947-0.916,2.831-1.505c0.9-0.589,1.735-1.276,2.487-2.029
			c0.753-0.753,1.44-1.587,2.029-2.487c0.589-0.884,1.096-1.833,1.505-2.831c0.409-0.982,0.72-2.013,0.933-3.06
			c0.213-1.047,0.327-2.127,0.327-3.191C396.481,180.481,396.366,179.401,396.154,178.354z"/>
	</g>
</g>
<g>
	<g>
		<path d="M147.934,424.626c-0.213-1.047-0.524-2.078-0.933-3.06c-0.409-0.998-0.916-1.947-1.505-2.831
			c-0.605-0.9-1.293-1.735-2.045-2.487c-3.044-3.044-7.249-4.794-11.569-4.794c-4.304,0-8.525,1.751-11.569,4.794
			c-0.753,0.753-1.44,1.587-2.029,2.487c-0.589,0.884-1.096,1.833-1.505,2.831c-0.409,0.982-0.72,2.013-0.933,3.06
			c-0.213,1.047-0.327,2.127-0.327,3.191c0,1.064,0.115,2.144,0.327,3.191c0.213,1.047,0.524,2.078,0.933,3.076
			c0.409,0.982,0.916,1.931,1.505,2.815c0.589,0.9,1.276,1.734,2.029,2.487c3.044,3.044,7.265,4.794,11.569,4.794
			c4.32,0,8.525-1.751,11.569-4.794c0.753-0.753,1.44-1.587,2.045-2.487c0.589-0.884,1.096-1.833,1.505-2.815
			c0.409-0.998,0.72-2.029,0.933-3.076s0.311-2.127,0.311-3.191S148.146,425.674,147.934,424.626z"/>
	</g>
</g>
<g>
</g>
<g>
</g>
<g>
</g>
<g>
</g>
<g>
</g>
<g>
</g>
<g>
</g>
<g>
</g>
<g>
</g>
<g>
</g>
<g>
</g>
<g>
</g>
<g>
</g>
<g>
</g>
<g>
</g>
</svg>
